<svg width="54" height="55" viewBox="0 0 54 55" fill="none" xmlns="http://www.w3.org/2000/svg">
<path d="M50.1437 21.7812H32.7862V4.625C32.7862 2.51979 31.0589 0.8125 28.929 0.8125H25.0718C22.9419 0.8125 21.2146 2.51979 21.2146 4.625V21.7812H3.8572C1.7273 21.7812 0 23.4885 0 25.5938V29.4062C0 31.5115 1.7273 33.2188 3.8572 33.2188H21.2146V50.375C21.2146 52.4802 22.9419 54.1875 25.0718 54.1875H28.929C31.0589 54.1875 32.7862 52.4802 32.7862 50.375V33.2188H50.1437C52.2736 33.2188 54.0009 31.5115 54.0009 29.4062V25.5938C54.0009 23.4885 52.2736 21.7812 50.1437 21.7812Z" fill="red"/>
</svg>
