<svg width="250" height="77" viewBox="0 0 250 77" fill="none" xmlns="http://www.w3.org/2000/svg">
<path fill-rule="evenodd" clip-rule="evenodd" d="M1.72266 41.8104L14.5763 76.2116C21.9891 75.5219 31.1708 72.5105 38.0374 69.6112C44.1386 67.0352 51.401 62.1034 55.6283 56.9752C64.0705 46.7333 65.669 34.9955 58.3286 23.9387C57.0525 22.0167 53.0419 16.4005 50.7932 16.3574C50.7705 19.3636 52.408 21.8917 53.0809 24.899C55.2175 34.4438 47.7765 40.6644 39.3438 43.4043C33.2581 45.3817 26.3371 46.0286 19.9696 45.3618C16.7146 45.0209 13.7721 44.6785 10.5626 43.9562C7.89044 43.3549 4.28812 42.0978 1.72266 41.8104Z" fill="#2C2B64"/>
<path fill-rule="evenodd" clip-rule="evenodd" d="M23.3412 0.0199665C6.71929 0.601116 -0.611299 11.2902 0.0397391 27.3416C0.202181 31.3463 0.80293 34.4972 1.5332 38.3891C1.99898 40.8715 3.41701 40.3637 5.51142 40.7648C8.07387 41.2555 26.6383 44.6113 27.139 44.4791C28.3858 44.1498 26.7195 41.2823 26.3676 40.3391C21.9548 28.5104 15.2517 8.3643 34.8572 7.61194C39.1098 7.44874 42.3228 7.91787 46.4758 8.48268C48.3554 8.7382 50.7082 7.93599 48.2784 6.53372C47.1922 5.9069 45.1031 5.05157 43.8885 4.53331C37.4841 1.80066 30.3267 -0.224271 23.3412 0.0199665Z" fill="#2C2B64"/>
<path fill-rule="evenodd" clip-rule="evenodd" d="M32.4345 14.294C17.8305 16.6799 27.1119 37.0732 41.494 35.2413C48.4807 34.3514 50.8222 27.5224 47.2657 21.7853C44.3191 17.0324 38.0487 13.3769 32.4345 14.294Z" fill="#2C2B64"/>
<path d="M119.54 27.36C117.92 27.36 116.41 27.1 115.01 26.58C113.63 26.04 112.43 25.28 111.41 24.3C110.39 23.32 109.59 22.17 109.01 20.85C108.45 19.53 108.17 18.08 108.17 16.5C108.17 14.92 108.45 13.47 109.01 12.15C109.59 10.83 110.39 9.68 111.41 8.7C112.45 7.72 113.66 6.97 115.04 6.45C116.42 5.91 117.93 5.64 119.57 5.64C121.39 5.64 123.03 5.96 124.49 6.6C125.97 7.22 127.21 8.14 128.21 9.36L125.09 12.24C124.37 11.42 123.57 10.81 122.69 10.41C121.81 9.99 120.85 9.78 119.81 9.78C118.83 9.78 117.93 9.94 117.11 10.26C116.29 10.58 115.58 11.04 114.98 11.64C114.38 12.24 113.91 12.95 113.57 13.77C113.25 14.59 113.09 15.5 113.09 16.5C113.09 17.5 113.25 18.41 113.57 19.23C113.91 20.05 114.38 20.76 114.98 21.36C115.58 21.96 116.29 22.42 117.11 22.74C117.93 23.06 118.83 23.22 119.81 23.22C120.85 23.22 121.81 23.02 122.69 22.62C123.57 22.2 124.37 21.57 125.09 20.73L128.21 23.61C127.21 24.83 125.97 25.76 124.49 26.4C123.03 27.04 121.38 27.36 119.54 27.36ZM137.591 27.24C136.251 27.24 135.051 26.98 133.991 26.46C132.951 25.94 132.141 25.15 131.561 24.09C130.981 23.01 130.691 21.64 130.691 19.98V10.86H135.371V19.29C135.371 20.63 135.651 21.62 136.211 22.26C136.791 22.88 137.601 23.19 138.641 23.19C139.361 23.19 140.001 23.04 140.561 22.74C141.121 22.42 141.561 21.94 141.881 21.3C142.201 20.64 142.361 19.82 142.361 18.84V10.86H147.041V27H142.601V22.56L143.411 23.85C142.871 24.97 142.071 25.82 141.011 26.4C139.971 26.96 138.831 27.24 137.591 27.24ZM151.377 27V10.86H155.847V15.42L155.217 14.1C155.697 12.96 156.467 12.1 157.527 11.52C158.587 10.92 159.877 10.62 161.397 10.62V14.94C161.197 14.92 161.017 14.91 160.857 14.91C160.697 14.89 160.527 14.88 160.347 14.88C159.067 14.88 158.027 15.25 157.227 15.99C156.447 16.71 156.057 17.84 156.057 19.38V27H151.377ZM164.209 27V10.86H168.679V15.42L168.049 14.1C168.529 12.96 169.299 12.1 170.359 11.52C171.419 10.92 172.709 10.62 174.229 10.62V14.94C174.029 14.92 173.849 14.91 173.689 14.91C173.529 14.89 173.359 14.88 173.179 14.88C171.899 14.88 170.859 15.25 170.059 15.99C169.279 16.71 168.889 17.84 168.889 19.38V27H164.209ZM177.041 27V10.86H181.721V27H177.041ZM176.651 8.79L180.701 4.47H185.741L180.311 8.79H176.651ZM193.864 27.24C192.124 27.24 190.574 26.89 189.214 26.19C187.854 25.47 186.784 24.48 186.004 23.22C185.244 21.96 184.864 20.53 184.864 18.93C184.864 17.31 185.244 15.88 186.004 14.64C186.784 13.38 187.854 12.4 189.214 11.7C190.574 10.98 192.124 10.62 193.864 10.62C195.564 10.62 197.044 10.98 198.304 11.7C199.564 12.4 200.494 13.41 201.094 14.73L197.464 16.68C197.044 15.92 196.514 15.36 195.874 15C195.254 14.64 194.574 14.46 193.834 14.46C193.034 14.46 192.314 14.64 191.674 15C191.034 15.36 190.524 15.87 190.144 16.53C189.784 17.19 189.604 17.99 189.604 18.93C189.604 19.87 189.784 20.67 190.144 21.33C190.524 21.99 191.034 22.5 191.674 22.86C192.314 23.22 193.034 23.4 193.834 23.4C194.574 23.4 195.254 23.23 195.874 22.89C196.514 22.53 197.044 21.96 197.464 21.18L201.094 23.16C200.494 24.46 199.564 25.47 198.304 26.19C197.044 26.89 195.564 27.24 193.864 27.24ZM210.599 27.24C209.259 27.24 208.059 26.98 206.999 26.46C205.959 25.94 205.149 25.15 204.569 24.09C203.989 23.01 203.699 21.64 203.699 19.98V10.86H208.379V19.29C208.379 20.63 208.659 21.62 209.219 22.26C209.799 22.88 210.609 23.19 211.649 23.19C212.369 23.19 213.009 23.04 213.569 22.74C214.129 22.42 214.569 21.94 214.889 21.3C215.209 20.64 215.369 19.82 215.369 18.84V10.86H220.049V27H215.609V22.56L216.419 23.85C215.879 24.97 215.079 25.82 214.019 26.4C212.979 26.96 211.839 27.24 210.599 27.24ZM224.385 27V4.74H229.065V27H224.385ZM241.088 27.24C239.368 27.24 237.838 26.88 236.498 26.16C235.178 25.44 234.128 24.46 233.348 23.22C232.588 21.96 232.208 20.53 232.208 18.93C232.208 17.31 232.588 15.88 233.348 14.64C234.128 13.38 235.178 12.4 236.498 11.7C237.838 10.98 239.368 10.62 241.088 10.62C242.788 10.62 244.308 10.98 245.648 11.7C246.988 12.4 248.038 13.37 248.798 14.61C249.558 15.85 249.938 17.29 249.938 18.93C249.938 20.53 249.558 21.96 248.798 23.22C248.038 24.46 246.988 25.44 245.648 26.16C244.308 26.88 242.788 27.24 241.088 27.24ZM241.088 23.4C241.868 23.4 242.568 23.22 243.188 22.86C243.808 22.5 244.298 21.99 244.658 21.33C245.018 20.65 245.198 19.85 245.198 18.93C245.198 17.99 245.018 17.19 244.658 16.53C244.298 15.87 243.808 15.36 243.188 15C242.568 14.64 241.868 14.46 241.088 14.46C240.308 14.46 239.608 14.64 238.988 15C238.368 15.36 237.868 15.87 237.488 16.53C237.128 17.19 236.948 17.99 236.948 18.93C236.948 19.85 237.128 20.65 237.488 21.33C237.868 21.99 238.368 22.5 238.988 22.86C239.608 23.22 240.308 23.4 241.088 23.4Z" fill="#2C2B64"/>
<path d="M87.316 72V35.6H95.74V65.136H113.992V72H87.316ZM135.49 72V66.54L134.97 65.344V55.568C134.97 53.8347 134.433 52.4827 133.358 51.512C132.318 50.5413 130.706 50.056 128.522 50.056C127.031 50.056 125.558 50.2987 124.102 50.784C122.681 51.2347 121.467 51.8587 120.462 52.656L117.55 46.988C119.075 45.9133 120.913 45.0813 123.062 44.492C125.211 43.9027 127.395 43.608 129.614 43.608C133.878 43.608 137.189 44.6133 139.546 46.624C141.903 48.6347 143.082 51.772 143.082 56.036V72H135.49ZM126.962 72.416C124.778 72.416 122.906 72.052 121.346 71.324C119.786 70.5613 118.59 69.5387 117.758 68.256C116.926 66.9733 116.51 65.5347 116.51 63.94C116.51 62.276 116.909 60.82 117.706 59.572C118.538 58.324 119.838 57.3533 121.606 56.66C123.374 55.932 125.679 55.568 128.522 55.568H135.958V60.3H129.406C127.499 60.3 126.182 60.612 125.454 61.236C124.761 61.86 124.414 62.64 124.414 63.576C124.414 64.616 124.813 65.448 125.61 66.072C126.442 66.6613 127.569 66.956 128.99 66.956C130.342 66.956 131.555 66.644 132.63 66.02C133.705 65.3613 134.485 64.408 134.97 63.16L136.218 66.904C135.629 68.7067 134.554 70.076 132.994 71.012C131.434 71.948 129.423 72.416 126.962 72.416ZM161.864 72.416C158.57 72.416 156.005 71.584 154.168 69.92C152.33 68.2213 151.412 65.708 151.412 62.38V37.836H159.524V62.276C159.524 63.4547 159.836 64.3733 160.46 65.032C161.084 65.656 161.933 65.968 163.008 65.968C164.29 65.968 165.382 65.6213 166.284 64.928L168.468 70.648C167.636 71.2373 166.63 71.688 165.452 72C164.308 72.2773 163.112 72.416 161.864 72.416ZM147.096 50.888V44.648H166.492V50.888H147.096ZM183.852 72.416C180.559 72.416 177.993 71.584 176.156 69.92C174.319 68.2213 173.4 65.708 173.4 62.38V37.836H181.512V62.276C181.512 63.4547 181.824 64.3733 182.448 65.032C183.072 65.656 183.921 65.968 184.996 65.968C186.279 65.968 187.371 65.6213 188.272 64.928L190.456 70.648C189.624 71.2373 188.619 71.688 187.44 72C186.296 72.2773 185.1 72.416 183.852 72.416ZM169.084 50.888V44.648H188.48V50.888H169.084ZM208.03 72.416C204.841 72.416 202.033 71.792 199.606 70.544C197.214 69.296 195.36 67.5973 194.042 65.448C192.725 63.264 192.066 60.7853 192.066 58.012C192.066 55.204 192.708 52.7253 193.99 50.576C195.308 48.392 197.093 46.6933 199.346 45.48C201.6 44.232 204.148 43.608 206.99 43.608C209.729 43.608 212.19 44.1973 214.374 45.376C216.593 46.52 218.344 48.184 219.626 50.368C220.909 52.5173 221.55 55.1 221.55 58.116C221.55 58.428 221.533 58.792 221.498 59.208C221.464 59.5893 221.429 59.9533 221.394 60.3H198.67V55.568H217.13L214.01 56.972C214.01 55.516 213.716 54.2507 213.126 53.176C212.537 52.1013 211.722 51.2693 210.682 50.68C209.642 50.056 208.429 49.744 207.042 49.744C205.656 49.744 204.425 50.056 203.35 50.68C202.31 51.2693 201.496 52.1187 200.906 53.228C200.317 54.3027 200.022 55.5853 200.022 57.076V58.324C200.022 59.8493 200.352 61.2013 201.01 62.38C201.704 63.524 202.657 64.408 203.87 65.032C205.118 65.6213 206.574 65.916 208.238 65.916C209.729 65.916 211.029 65.6907 212.138 65.24C213.282 64.7893 214.322 64.1133 215.258 63.212L219.574 67.892C218.292 69.348 216.68 70.4747 214.738 71.272C212.797 72.0347 210.561 72.416 208.03 72.416ZM236.363 72.416C233.971 72.416 231.666 72.1387 229.447 71.584C227.263 70.9947 225.53 70.2667 224.247 69.4L226.951 63.576C228.234 64.3733 229.742 65.032 231.475 65.552C233.243 66.0373 234.976 66.28 236.675 66.28C238.547 66.28 239.864 66.0547 240.627 65.604C241.424 65.1533 241.823 64.5293 241.823 63.732C241.823 63.0733 241.511 62.588 240.887 62.276C240.298 61.9293 239.5 61.6693 238.495 61.496C237.49 61.3227 236.38 61.1493 235.167 60.976C233.988 60.8027 232.792 60.5773 231.579 60.3C230.366 59.988 229.256 59.5373 228.251 58.948C227.246 58.3587 226.431 57.5613 225.807 56.556C225.218 55.5507 224.923 54.2507 224.923 52.656C224.923 50.888 225.426 49.328 226.431 47.976C227.471 46.624 228.962 45.5667 230.903 44.804C232.844 44.0067 235.167 43.608 237.871 43.608C239.778 43.608 241.719 43.816 243.695 44.232C245.671 44.648 247.318 45.2547 248.635 46.052L245.931 51.824C244.579 51.0267 243.21 50.4893 241.823 50.212C240.471 49.9 239.154 49.744 237.871 49.744C236.068 49.744 234.751 49.9867 233.919 50.472C233.087 50.9573 232.671 51.5813 232.671 52.344C232.671 53.0373 232.966 53.5573 233.555 53.904C234.179 54.2507 234.994 54.528 235.999 54.736C237.004 54.944 238.096 55.1347 239.275 55.308C240.488 55.4467 241.702 55.672 242.915 55.984C244.128 56.296 245.22 56.7467 246.191 57.336C247.196 57.8907 248.011 58.6707 248.635 59.676C249.259 60.6467 249.571 61.9293 249.571 63.524C249.571 65.2573 249.051 66.8 248.011 68.152C246.971 69.4693 245.463 70.5093 243.487 71.272C241.546 72.0347 239.171 72.416 236.363 72.416Z" fill="#2C2B64"/>
</svg>
